<svg width="512" height="512" viewBox="0 0 117.509 117.509" xmlns="http://www.w3.org/2000/svg">
    <!-- 
        Minesweeper Engine Icon
        Author: Amey Thakur
        Technical: Direct vectorization of the procedural mine generator.
    -->
    <path d="M35.134 34.736h20.478v20.612H35.134z" fill="#ffffff" />
    <path d="M54.29 108.46v-9.047H36.192v-11.751h-9.048v11.751h-9.049v11.751h9.049v-9.048h-9.049V63.22H0V54.289h18.096V36.193h9.049v-9.048h-9.049v-9.049h9.049v9.049h9.048v-9.049h18.096V0H63.22v18.096h18.096v9.049h9.048v-9.049h9.049v9.049h-9.049v9.048h9.049v18.096h18.096V63.22H99.413v18.096h-9.049v9.048h9.049v9.049h-9.049v-9.049h-9.048v9.049H63.22v18.096H54.289zm0-63.219v-9.048H36.192v18.096h18.096z" fill="#000000" />
</svg>
