<svg xmlns="http://www.w3.org/2000/svg" xml:space="preserve" style="enable-background:new 0 0 122.88 87.46" viewBox="0 0 122.88 87.46"><path d="M2.17 87.46c-1.2 0-2.17-.91-2.17-2.04s.97-2.04 2.17-2.04h9.16V20.59c0-.65.27-1.25.7-1.68.44-.44 1.03-.71 1.68-.71h13.02c.66 0 1.25.27 1.68.71.43.43.7 1.03.7 1.68v62.78h9.69V38.8c0-.65.27-1.24.7-1.68.43-.43 1.03-.7 1.67-.7h13.02c.67 0 1.26.27 1.68.7.43.43.7 1.04.7 1.68v44.57h9.69V2.38c0-.65.27-1.24.7-1.68.46-.43 1.05-.7 1.71-.7h13.02c.66 0 1.25.27 1.68.7.43.43.7 1.04.7 1.68v80.99h9.69V25.8a2.389 2.389 0 0 1 2.39-2.38h13.02c.66 0 1.26.27 1.68.7.43.43.7 1.03.7 1.68v57.58h9.16c1.2 0 2.17.91 2.17 2.04s-.97 2.04-2.17 2.04H2.17zm22.6-64.91h-9.1v60.56h9.1V22.55zm27.48 18.21h-9.1v42.35h9.1V40.76zM79.73 4.34h-9.1v78.77h9.1V4.34zm27.47 23.42h-9.1v55.36h9.1V27.76z"/></svg>
