<svg width="62" height="118" viewBox="0 0 61.552 117.509" preserveAspectRatio="xMidYMid meet" xmlns="http://www.w3.org/2000/svg"><path style="fill:red" d="M84.125 181.647v-2.798h-5.596V128.488h5.596V134.083H89.72v5.596h5.596v27.978h27.978V139.68h5.596v-5.596h5.596V128.488H140.08v50.36H134.486v5.596H84.125zm5.595-5.596v-2.798h5.596v-5.596H89.72v5.596H84.125v5.596H89.72zm44.766 0v-2.798h-5.596v-5.596h-5.596v5.596h5.596v5.596h5.596zM78.529 97.71v-25.18h5.596v-5.596h50.36v5.596h5.596V122.892H134.486v-5.596h-5.596V111.701h-5.596V83.722H95.316v27.979H89.72V117.296H84.125v5.596h-5.596Zm16.787-16.786v-2.798H89.72V72.53H84.125v5.596H89.72V83.722h5.596zm33.574 0v-2.798h5.596V72.53h-5.596v5.596h-5.596V83.722h5.596z" transform="translate(-78.529 -66.935)"/><path style="fill:#200" d="M95.316 131.286v-2.798H89.72v-5.596h5.596v-5.596h5.596v5.596H106.507v-5.596h5.596v5.596h5.596v-5.596H123.294v5.596h5.596v5.596h-5.596V134.083H117.7v-5.595h-5.596V134.083h-5.596V128.488H100.912v5.595h-5.596zm5.596-5.596v-2.798h-5.596v5.596h5.596zm11.191 0v-2.798h-5.596v5.596h5.596zm11.191 0v-2.798H117.7v5.596h5.594z" transform="translate(-78.529 -66.935)"/></svg>
