<svg width="62" height="118" viewBox="0 0 61.552 117.509" preserveAspectRatio="xMidYMid meet" xmlns="http://www.w3.org/2000/svg"><path style="fill:red" d="M126.582 156.917v-2.797h-5.596v-5.596H115.391v-27.978H120.986v-5.596h5.596v-5.596h5.596V159.715h-5.596zm0-55.956v-2.798h-5.596v-5.596H115.391V64.59H120.986v-5.596h5.596V53.398h5.596v50.36h-5.596z" transform="translate(-70.625 -47.802)"/><path style="fill:#200" d="M81.817 162.513v-2.798H87.412V154.12h5.596v-5.596h5.596v5.596H104.199v-5.596h5.596v5.596h5.596V159.715H120.986v5.596H115.391v-5.596h-5.596v5.596H104.2v-5.596H98.604v5.596h-5.596v-5.596h-5.596v5.596H81.817zm16.787-5.596v-2.797h-5.596V159.715h5.596zm11.191 0v-2.797H104.2V159.715h5.596zm-39.17 0v-2.797h5.596v-5.596h-5.596v-5.596h5.596V137.333h-5.596v-5.596h5.596v-5.596h-5.596V120.546h5.596v-5.596h-5.596v-5.596h5.596v5.596h5.596v5.596H87.412v-5.595h-5.596l.001 5.595H87.412v5.596H81.817v5.596H87.412v5.596H81.817v5.596H76.22V159.715h-5.596Zm11.192-11.19v-2.799H76.22v5.596h5.596zm0-11.192v-2.798H76.22v5.596h5.596zm0-11.192v-2.797H76.22V126.14h5.596zm5.595-11.19v-2.799H81.817V103.76H87.412v-5.596h5.596v5.596h5.596v-5.596H104.199v5.596h5.596v-5.596h5.596v5.596H120.986V109.354H115.391v5.596h-5.596v-5.596H104.2v5.596H98.604v-5.596h-5.596v5.596h-5.596zm5.596-5.597v-2.797h-5.596V109.354h5.596zm11.191 0v-2.797H98.604V109.354H104.199zm11.192 0v-2.797h-5.596V109.354h5.596zm-44.766-5.595v-2.798h5.596v-5.596h-5.596V86.972h5.596v-5.596h-5.596V75.78h5.596V70.185h-5.596v-5.596h5.596v-5.596h-5.596V53.398h5.596V58.993h5.596v5.596H87.412v5.596H81.817V75.78H87.412v5.596H81.817v5.596H87.412V92.567H81.817v5.596H76.22v5.596h-5.596Zm11.192-11.192v-2.797H76.22V92.567h5.596zm0-11.19V75.78H76.22v5.596h5.596zm0-11.192v-2.798H76.22v5.596h5.596zm11.191-5.596v-2.798h-5.596V53.398H81.817v-5.596H87.412v5.596h5.596v-5.596h5.596v5.596H104.199v-5.596h5.596v5.596h5.596v-5.596H120.986v5.596H115.391V58.993h-5.596v5.596H104.2v-5.596H98.604v5.596h-5.596zm5.596-5.596v-2.797h-5.596V58.993h5.596zm11.191 0v-2.797H104.2V58.993h5.596z" transform="translate(-70.625 -47.802)"/></svg>
