<svg width="232.639" height="444.129" viewBox="0 0 61.552 117.509" xml:space="preserve" xmlns="http://www.w3.org/2000/svg"><path style="fill:red;fill-opacity:1" d="M72.518 163.144v-2.798H66.923v-50.36H72.518v-5.596h5.596v-5.596h39.17v-5.596h-5.596V65.22H83.71v-5.596h-5.596V54.03h-5.596v-5.596H122.88v5.596h5.596v50.36h-5.596v5.596H117.284v5.596h-39.17v5.596h5.596v27.978h27.978v5.596h5.596V160.346H122.879v5.596H72.52Zm5.596-5.596v-2.797h5.596v-5.596h-5.596v5.596h-5.596V160.346h5.596zm0-44.765v-2.798h-5.596v5.596h5.596zm44.765-11.191v-2.798H117.284v5.596H122.879zm-5.595-39.17v-2.798H122.879V54.03H117.284V59.624h-5.596v-5.596h5.596z" transform="translate(-66.923 -48.433)"/><path style="fill:maroon;fill-opacity:1" d="M122.88 157.548v-2.797h-5.596v-5.596h-5.596v-5.596h5.596V137.964h-5.596v-5.596h5.596v-5.596h-5.596V121.177h5.596v-5.596H122.879v-5.596h5.596v5.596h-5.596v5.596h5.596V126.772h-5.596v5.596h5.596v5.596h-5.596V143.559h5.596v5.596h-5.596v5.596h5.596V160.346h-5.596zm0-11.19v-2.799h-5.596v5.596H122.879zm0-11.192v-2.798h-5.596v5.596H122.879zm0-11.192v-2.797h-5.596V126.772H122.879zm-55.957-22.382v-2.798H72.518v-5.596H66.923V87.603H72.518v-5.596H66.923v-5.596H72.518V70.816H66.923V65.22H72.518v-5.596H66.923V54.03H72.518V59.624h5.596v5.596h5.596v5.596h-5.596V76.41h5.596v5.596h-5.596v5.596h5.596V93.198h-5.596v5.596h-5.596v5.596H66.923ZM78.114 90.4v-2.797h-5.596V93.198h5.596zm0-11.19V76.41h-5.596v5.596h5.596zm0-11.192V65.22h-5.596v5.596h5.596z" transform="translate(-66.923 -48.433)"/></svg>
