<svg width="62" height="118" viewBox="0 0 61.552 117.509" preserveAspectRatio="xMidYMid meet" xmlns="http://www.w3.org/2000/svg"><path style="fill:red" d="M88.44 173.962v-2.798h5.596V165.57H99.63v-5.596h27.979v-27.979H133.205V126.4H94.036v-5.596H88.44V115.208h5.596v-5.596h39.169v-5.596H127.61V76.038H99.63v-5.596H94.036V64.847H88.44V59.25H138.801v5.596h5.596v50.36H138.8v5.596h5.596V171.164H138.8v5.596h-50.36zm50.361-5.595v-2.798h-5.596v-5.596H127.61v5.596H133.205V171.164h5.596zm0-44.766v-2.798h-5.596v5.596h5.596zm0-11.191v-2.798h-5.596v5.596h5.596zm-5.596-39.17v-2.798h5.596V64.847h-5.596V70.442H127.61v5.596H133.205z" transform="translate(-82.844 -59.251)"/><path style="fill:#200" d="M82.844 168.367v-2.798h5.596v-5.596h-5.596v-5.596h5.596V148.782h-5.596v-5.596h5.596v-5.596h-5.596V131.995h5.596v-5.596h-5.596v-5.596h5.596v5.596h5.596v5.596H99.63V137.59H94.036v5.596H99.63v5.596H94.036V154.377H99.63v5.596H94.036v5.596H88.44V171.164h-5.596Zm11.192-11.192v-2.798H88.44v5.596h5.596zm0-11.191v-2.798H88.44v5.596h5.596zm0-11.191v-2.798H88.44V137.59h5.596zM82.844 112.41v-2.798h5.596v-5.596h-5.596V98.421h5.596v-5.596h-5.596V87.23h5.596V81.634h-5.596v-5.596h5.596v-5.596h-5.596V64.847h5.596V70.442h5.596v5.596H99.63v5.596H94.036V87.229H99.63v5.596H94.036v5.596H99.63V104.016H94.036v5.596H88.44v5.596h-5.596zm11.192-11.191V98.42H88.44V104.016h5.596zm0-11.192V87.23H88.44v5.596h5.596zm0-11.191v-2.798H88.44v5.596h5.596" transform="translate(-82.844 -59.251)"/></svg>
