<svg width="232.639" height="444.129" viewBox="0 0 61.552 117.509" xml:space="preserve" xmlns="http://www.w3.org/2000/svg"><path style="fill:red;fill-opacity:1" d="M129.035 207.743v-2.798H123.44v-5.596h-5.596v-27.978h5.596v-5.596H84.27V160.18h-5.596v-5.596H73.08v-50.36H78.674V109.818h5.596V115.414h5.596v27.979H84.27V148.988h39.17V143.393h-5.596v-27.979h5.596V109.82H129.035v-5.596h5.596V154.584h-5.596v5.596h5.596v50.36h-5.596zm0-44.765v-2.798H123.44V165.775H129.035zM84.27 151.786v-2.798h-5.596v5.596h5.596zm44.765 0v-2.798H123.44v5.596H129.035z" transform="translate(-73.079 -98.627)"/><path style="fill:maroon;fill-opacity:1" d="M84.27 213.339v-2.798h5.596v-5.596H95.46v-5.596h5.596v5.596h5.596v-5.596H112.248v5.596h5.596v5.596h5.596V216.136h-5.596V210.541h-5.596V216.136H106.653V210.541h-5.596V216.136h-5.596V210.541H89.866V216.136H84.27zm16.787-5.596v-2.798h-5.596v5.596h5.596zm11.191 0v-2.798H106.653v5.596H112.248zm-39.17 0v-2.798h5.596v-5.596H73.08V193.754H78.674v-5.596H73.08v-5.596H78.674V176.967H73.08v-5.596H78.674v-5.596H73.08V160.18H78.674V165.775h5.596v5.596h5.596v5.596H84.27V182.562h5.596v5.596H84.27v5.596h5.596V199.349H84.27v5.596h-5.596v5.596H73.08zm11.192-11.191v-2.798h-5.596V199.349h5.596zm0-11.192v-2.798h-5.596v5.596h5.596zm0-11.191v-2.798h-5.596v5.596h5.596zm11.191-61.552v-2.798H89.866v-5.596H84.27v-5.596h5.596v5.596H95.46v-5.596h5.596v5.596h5.596v-5.596H112.248v5.596h5.596v-5.596h5.596v5.596h-5.596v5.596h-5.596V115.414H106.653V109.82h-5.596V115.414h-5.596zm5.596-5.596v-2.798h-5.596v5.596h5.596zm11.191 0v-2.798H106.653v5.596H112.248z" transform="translate(-73.079 -98.627)"/></svg>
