<svg width="62" height="118" viewBox="0 0 61.552 117.509" preserveAspectRatio="xMidYMid meet" xmlns="http://www.w3.org/2000/svg"><path style="fill:red" d="M48.986 131.64v-2.798h5.596V123.247H60.177v-5.596h27.979V89.672H93.75V84.078H54.582v-5.596h-5.596V72.886H43.39V22.525h5.596v-5.596H99.347v5.596h-5.596V28.12H88.156v5.596H60.177v27.978H54.582v5.596H93.75v5.596h5.596V78.48h5.596V128.842h-5.596v5.596H48.986Zm50.361-5.595v-2.798h-5.596v-5.596H88.156v5.596H93.75V128.842h5.596zm0-44.766v-2.798h-5.596v5.596h5.596zM54.582 70.088V67.29h-5.596v5.596h5.596zm5.595-39.17V28.12H54.582V22.525h-5.596V28.12h5.596v5.596H60.177z" transform="translate(-43.39 -16.93)"/><path style="fill:#200" d="M43.39 126.045v-2.798h5.596v-5.596H43.39v-5.596h5.596V106.46H43.39v-5.596h5.596v-5.596H43.39V89.673h5.596v-5.596H43.39v-5.596h5.596v5.596h5.596v5.596H60.177V95.268H54.582v5.596H60.177v5.596H54.582V112.055H60.177v5.596H54.582v5.596h-5.596V128.842H43.39Zm11.192-11.192v-2.798h-5.596v5.596h5.596zm0-11.191v-2.798h-5.596v5.596h5.596zm0-11.191v-2.798h-5.596V95.268h5.596zm44.765-22.383V67.29h-5.596v-5.596H88.156V56.1H93.75v-5.596H88.156v-5.596H93.75V39.312H88.156v-5.596H93.75V28.12h5.596V22.525h5.596V28.12h-5.596v5.596h5.596v5.596h-5.596V44.907h5.596v5.596h-5.596V56.1h5.596V61.694h-5.596v5.596h5.596v5.596h-5.596zm0-11.191v-2.798h-5.596V61.694h5.596zm0-11.192v-2.798h-5.596v5.596h5.596zm0-11.191v-2.798h-5.596v5.596h5.596z" transform="translate(-43.39 -16.93)"/></svg>
