<svg width="62" height="118" viewBox="0 0 61.552 117.509" preserveAspectRatio="xMidYMid meet" xmlns="http://www.w3.org/2000/svg"><path style="fill:red" d="M78.394 181.432v-2.798H72.8V128.273H78.394v-5.596H72.8V72.316H78.394V66.72H128.755v5.596H123.16v5.596h-5.596V83.507H89.586v27.979H83.99V117.08h39.17v5.596H128.755v5.596h5.596v50.36h-5.596v5.596h-50.36zm5.596-5.596v-2.798h5.596v-5.596h27.978v5.596h5.596v5.596H128.755v-5.596H123.16v-5.596h-5.596v-27.978h5.596v-5.596H128.755V128.273H123.16V133.868H83.99V128.273h-5.596V133.868h5.596v5.596h5.596v27.978H83.99v5.596h-5.596v5.596h5.596zm0-55.957v-2.798h-5.596v5.596h5.596zm5.596-39.17v-2.797H83.99v-5.596h-5.596v5.596h5.596V83.507h5.596z" transform="translate(-72.799 -66.72)"/><path style="fill:#200" d="M128.755 119.88v-2.799H123.16V111.486h-5.596v-5.596h5.596v-5.596h-5.596V94.7h5.596v-5.596h-5.596v-5.596h-5.596v11.188V77.912h11.191v-5.596h5.596v5.596h-5.596V83.507h5.596v5.596h-5.596v5.596h5.596V100.294h-5.596v5.596h5.596v5.596h-5.596V117.08h5.596v5.596h-5.596zm0-11.192v-2.798H123.16v5.596H128.755zm0-11.191v-2.798H123.16V100.294H128.755zm0-11.192v-2.798H123.16v5.596H128.755z" transform="translate(-72.799 -66.72)"/></svg>
