<svg width="232.639" height="444.129" viewBox="0 0 61.552 117.509" xml:space="preserve" xmlns="http://www.w3.org/2000/svg"><path style="fill:red;fill-opacity:1" d="M148.973 177.614v-2.798h-5.596V169.221h-5.596v-27.979h5.596V135.647h5.596v-5.596H154.568V180.412H148.973zm0-55.956v-2.798h-5.596v-5.596h-5.596V85.285h-27.978V79.69h-5.596v-5.596H98.612V68.5h50.36V74.094h5.596V124.455H148.973zm-5.596-39.17V79.69h5.596v-5.596h-5.596v5.596h-5.596v5.596h5.596z" transform="translate(-93.016 -68.499)"/><path style="fill:maroon;fill-opacity:1" d="M104.207 183.21v-2.798h5.596v-5.596h5.596V169.221H120.994V174.816h5.596V169.221h5.596V174.816H137.78v5.596h5.596v5.596h-5.596v-5.596H132.186v5.596h-5.596v-5.596h-5.596v5.596H115.4v-5.596h-5.596v5.596h-5.596zm16.787-5.596v-2.798H115.4v5.596H120.994zm11.192 0v-2.798h-5.596v5.596h5.596zm-39.17 0v-2.798h5.596V169.221h-5.596v-5.596h5.596v-5.596h-5.596V152.434h5.596v-5.596h-5.596v-5.596h5.596V135.647h-5.596v-5.596h5.596v5.596H104.207V141.242h5.596v5.596h-5.596v5.596h5.596V158.029h-5.596v5.596h5.596v5.596h-5.596V174.816H98.612v5.596h-5.596Zm11.191-11.191v-2.798H98.612v5.596H104.207zm0-11.191v-2.798H98.612V158.029H104.207zm0-11.192v-2.798H98.612v5.596H104.207zm5.596-11.191v-2.798h-5.596v-5.596h5.596V118.86h5.596V124.455H120.994V118.86h5.596V124.455h5.596V118.86H137.78V124.455h5.596v5.596h-5.596v5.596H132.186v-5.596h-5.596v5.596h-5.596v-5.596H115.4v5.596h-5.596zm5.596-5.596v-2.798h-5.596v5.596h5.596zm11.191 0v-2.798h-5.596v5.596h5.596zm11.191 0v-2.798H132.186v5.596H137.78zm-44.765-5.595v-2.798h5.596v-5.596h-5.596v-5.596h5.596V102.073h-5.596v-5.596h5.596v-5.596h-5.596V85.286h5.596V79.69h-5.596v-5.596h5.596v5.596H104.207v5.596h5.596V90.88h-5.596v5.596h5.596v5.596h-5.596V107.668h5.596v5.596h-5.596v5.596H98.612V124.455h-5.596Zm11.191-11.192v-2.798H98.612v5.596H104.207zm0-11.191v-2.798H98.612v5.596H104.207zm0-11.191v-2.798H98.612V90.88H104.207z" transform="translate(-93.016 -68.499)"/></svg>
