<svg width="232.639" height="444.129" viewBox="0 0 61.552 117.509" xml:space="preserve" xmlns="http://www.w3.org/2000/svg"><path style="fill:red;fill-opacity:1" d="M65.874 177.413v-2.798h-5.596v-50.36h5.596v-5.596h-5.596V68.298h5.596v-5.596H116.235v5.596h5.596v50.36h-5.596v5.596h5.596V174.615h-5.596v5.596h-50.36Zm5.596-5.595v-2.798H77.065v-5.596h27.979v5.596H110.639V174.615h5.596V169.02h-5.596v-5.596H105.044v-27.978H110.639v-5.596h5.596v-5.596h-5.596v5.596H71.47v-5.596h-5.596v5.596h5.596v5.596H77.065v27.979H71.47V169.02h-5.596V174.615h5.596zm0-55.957v-2.798h39.169v5.596h5.596v-5.596h-5.596v-5.596H105.044V79.49H110.639v-5.596h5.596V68.298h-5.596V73.893H105.044v5.596H77.065v-5.596H71.47V68.298h-5.596V73.893h5.596v5.596H77.065v27.978H71.47v5.596h-5.596v5.596h5.596z" transform="translate(-60.278 -62.702)"/></svg>
