<svg width="62" height="118" viewBox="0 0 61.552 117.509" preserveAspectRatio="xMidYMid meet" xmlns="http://www.w3.org/2000/svg"><path style="fill:red" d="M101.36 186.218v-2.798H106.954V177.825h5.596v-5.596h27.979V144.25H146.124v-5.596h-39.17v-5.596h-5.596V127.464H95.764V77.103H101.359v-5.596H151.72v5.596h5.596v50.36h-5.596v5.596h5.596V183.42h-5.596v5.596h-50.36zm50.36-5.596v-2.797H146.125v-5.596h-5.596v5.596h5.596V183.42H151.72zm0-44.765v-2.798H146.125v5.596H151.72zm-44.765-11.191v-2.798h39.17v5.596H151.72v-5.596H146.125v-5.596h-5.596V88.293h5.596V82.699H151.72V77.103H146.125V82.698h-5.596v5.596h-27.978v-5.596h-5.596V77.103h-5.596V82.698h5.596v5.596h5.596v27.978h-5.596v5.596h-5.596v5.596h5.596z" transform="translate(-95.764 -71.507)"/><path style="fill:#200" d="M95.764 180.622v-2.797H101.359v-5.596H95.764v-5.596H101.359V161.038H95.764v-5.596H101.359v-5.596H95.764V144.251H101.359v-5.596H95.764v-5.596H101.359v5.596h5.596v5.596h5.596V149.846h-5.596v5.596h5.596v5.596h-5.596V166.633h5.596v5.596h-5.596v5.596h-5.596V183.42H95.764zm11.191-11.19v-2.799h-5.596v5.596h5.596zm0-11.192v-2.798h-5.596v5.596h5.596zm0-11.192v-2.797h-5.596V149.846h5.596z" transform="translate(-95.764 -71.507)"/></svg>
