<svg width="62" height="118" viewBox="0 0 61.552 117.509" preserveAspectRatio="xMidYMid meet" xmlns="http://www.w3.org/2000/svg"><path style="fill:red" d="M84.525 108.574v-2.798h-5.596v-5.596h5.596V94.585h39.17V100.18H129.29v5.596H123.695v5.596h-39.17Z" transform="translate(-73.334 -44.224)"/><path style="fill:#200" d="M84.525 158.935v-2.798h5.596v-5.596H95.716V144.946h5.596V150.54h5.596V144.946H112.503V150.54h5.596v5.596h5.596v5.596h-5.596v-5.596h-5.596v5.596H106.908v-5.596h-5.596v5.596h-5.596v-5.596H90.121v5.596h-5.596zm16.787-5.596v-2.798h-5.596v5.596h5.596zm11.191 0v-2.798H106.908v5.596H112.503zm-39.17 0v-2.798h5.596V144.946H73.334v-5.596H78.929v-5.596H73.334V128.16H78.929v-5.596H73.334v-5.596H78.929V111.372H73.334v-5.596H78.929v5.596h5.596V116.967h5.596v5.596h-5.596v5.596h5.596V133.754h-5.596v5.596h5.596v5.596h-5.596V150.54h-5.596v5.596H73.334Zm11.192-11.191v-2.798h-5.596v5.596h5.596zm0-11.191v-2.798h-5.596V133.754h5.596zm0-11.192v-2.798h-5.596v5.596h5.596zm44.765 33.574v-2.798H123.695V144.946h-5.596v-5.596h5.596v-5.596h-5.596V128.16h5.596v-5.596h-5.596v-5.596h-5.596V111.372H129.29v-5.596h5.596v5.596h-5.596V116.967h5.596v5.596h-5.596v5.596h-5.596V133.754h-5.596v5.596h5.596v5.596h-5.596V150.54h5.596v5.596h-5.596zm0-11.191v-2.798H123.695v5.596H129.29zm0-11.191v-2.798H123.695V133.754H129.29zm0-11.192v-2.798H123.695v5.596H129.29zM73.334 97.383v-2.798H78.929v-5.596H73.334v-5.596H78.929V77.798H73.334v-5.596H78.929v-5.596H73.334V61.011H78.929v-5.596H73.334v-5.596H78.929v5.596h5.596v5.596h5.596V66.606h-5.596v5.596h5.596v5.596h-5.596V83.393h5.596v5.596h-5.596v5.596h-5.596V100.18H73.334Zm11.19-11.192v-2.798H78.93v5.596h5.596zm0-11.191v-2.798H78.93v5.596h5.596zm0-11.191V61.01H78.93V66.606h5.596zm44.766 33.574v-2.798H123.695v-5.596h-5.596v-5.596h5.596V77.798h-5.596v-5.596h5.596v-5.596h-5.596V61.011h5.596v-5.596H129.29v-5.596h5.596v5.596h-5.596v5.596h5.596V66.606h-5.596v5.596h5.596v5.596h-5.596V83.393h5.596v5.596h-5.596v5.596h5.596V100.18h-5.596zm0-11.192v-2.798H123.695v5.596H129.29zm0-11.191v-2.798H123.695v5.596H129.29zm0-11.191V61.01H123.695V66.606H129.29zm-33.574-5.596v-2.798H90.121v-5.596h-5.596V44.224h5.596V49.819H95.716V44.224h5.596V49.819h5.596V44.224H112.503V49.819h5.596V44.224h5.596V49.819h-5.596v5.596h-5.596v5.596H106.908v-5.596h-5.596v5.596h-5.596zm5.596-5.596V49.82h-5.596v5.596h5.596zm11.191 0V49.82H106.908v5.596H112.503z" transform="translate(-73.334 -44.224)"/></svg>
